<svg version="1.1" xmlns="http://www.w3.org/2000/svg" viewBox="0 0 655.5 283" width="1311" height="566">
  <!-- svg-source:excalidraw -->
  
  <defs>
    <style>
      @font-face {
        font-family: "Virgil";
        src: url("https://excalidraw.com/Virgil.woff2");
      }
      @font-face {
        font-family: "Cascadia";
        src: url("https://excalidraw.com/Cascadia.woff2");
      }
    </style>
  </defs>
  <rect x="0" y="0" width="655.5" height="283" fill="#ffffff"></rect><g transform="translate(10 55) rotate(0 79.5 45)"><path d="M-1.1999556887894869 0.9389464426785707 C53.95667674569413 0.03894216046668597, 109.12894753161818 1.7287075542006642, 158.64838404767215 -0.8536348175257444 M0.31310076359659433 -0.31304042879492044 C32.565561197977516 0.847717213658616, 67.31564984433354 0.4310214102547616, 159.31232462171465 0.22181478794664145 M160.27587552182376 -0.21268604509532452 C159.75882817609235 20.06999525707215, 158.79885537726804 41.21768395975232, 157.28420175425708 90.70287974365056 M159.48385033849627 -0.06031044665724039 C160.19225529832767 29.248446321114898, 159.81193352742122 60.922718797810376, 158.8025713050738 89.91946721728891 M159.9336201082915 88.77624733932316 C101.96278899507595 89.2093584319856, 42.773587444238345 89.43496290653013, 0.47223312966525555 89.16540207155049 M158.4093005741015 90.34801245387644 C103.2781643510796 89.63746698548086, 45.786074797064046 89.82519661237485, -0.05511196609586477 89.69028458651155 M0.5034416448324919 91.63163770921528 C1.3998043251223862 67.23448073957115, 1.076294691581279 42.55548058450221, -0.7155613768845797 -0.8632235955446959 M-0.36889203544706106 89.21255693491548 C-0.12385699069127432 66.6557035818696, -0.39543890869244924 41.122752168215804, -0.43684213515371084 -0.8067060047760606" stroke="#495057" stroke-width="2" fill="none"></path></g><g transform="translate(238 53.5) rotate(0 79.5 45)"><path d="M0.47223312966525555 -0.8345979284495115 C40.565303650777786 0.0857733459863812, 78.284425120987 -0.5349451927747577, 159.69602490775287 1.8183221388608217 M-0.05511196609586477 -0.30971541348844767 C49.23959685740993 -1.1641031250078233, 99.2750674378127 -0.2280014201719316, 159.81581885460764 0.3919307654723525 M158.28443862311542 -0.8632235955446959 C158.54097781581805 33.80907058995217, 157.78202239675448 69.28185801580548, 157.42511386983097 88.67161061055958 M158.5631578648463 -0.8067060047760606 C157.65224450333045 33.201026117429144, 158.31150498492644 65.28475368488581, 158.18910215143114 89.14995173271745 M160.65020055882633 90.83117510564625 C123.76409358279778 91.37768469332717, 85.22706001680343 91.95747808693908, -0.7871748078614473 88.28484972007573 M159.38067791704088 89.70373348053545 C112.37117861220614 88.3041129185725, 64.7340938962996 89.698827065425, -0.9240027582272887 89.46285761054605 M0.5438231360167265 88.88659866340458 C-1.0137811618857087 64.6062661120668, -1.7677431422285736 42.71004496514797, 0.9377599488943815 -1.3895069193094969 M-0.5735906278714538 90.20680201705545 C0.93593924427405 67.31666926294565, 0.38002600455656643 43.82693380955606, 0.006441869772970676 0.9554958110675216" stroke="#495057" stroke-width="2" fill="none"></path></g><g transform="translate(466 56.5) rotate(0 79.5 45)"><path d="M1.4911368023604155 -1.335413260385394 C33.53287241486833 -2.7427530862297864, 69.64395731631667 -3.243203756948933, 160.85690207593143 -1.4798927139490843 M0.9957909071817994 -0.17711942736059427 C48.75362133858726 1.4981968879979104, 96.89628701321782 0.5684548199456185, 159.34592113737017 -0.04077800456434488 M158.93580956570804 1.4635462928563356 C157.9687156329863 22.84371647518128, 159.9074549923651 47.17580812051892, 157.92152227275074 90.80162795074284 M159.46947322133929 -0.05813273135572672 C158.71128734750673 24.714177941903475, 159.55617004437372 48.26948479283602, 158.57318259123713 89.09686160739511 M158.37391914241016 88.45092328079045 C102.17194298105315 91.76873167245648, 43.992807319574055 91.12247945754788, 0.4436295758932829 88.4432579446584 M158.89365697745234 90.71595860179514 C123.22890673885121 91.25029324223287, 87.99666020050644 90.15642191697843, 0.3514398718252778 90.35405287798494 M-0.12062089331448078 91.5088588166982 C-2.3695943164639175 59.36995637509972, 0.6059988331981002 26.84862481057644, -0.16106556542217731 1.2040915060788393 M-0.6118763303384185 90.11765823420137 C-0.659817712660879 68.00441650301218, -0.5470154753886164 47.92630717996508, -0.41729896422475576 0.5616979068145156" stroke="#495057" stroke-width="2" fill="none"></path></g><g transform="translate(191 10) rotate(0 227.25 90.75)"><path d="M-0.05995103757589868 0.7088307737942378 C120.87106686867463 0.5580132726066969, 240.32470785701938 -0.991698902445314, 454.23029582736154 0.17320016764455248 M456.1126896310598 -1.8588191140443087 C454.2577235137812 60.95235601090826, 455.09040463322316 118.61864702636376, 456.40705867297953 181.12920339219272 M453.5698297812109 180.94067362795997 C289.07703390121173 183.2700790595984, 122.94386573622911 183.68647762820828, 0.584790612312259 181.34027812506156 M0.4659914541989565 183.3734856378287 C0.5780863348254934 135.2036865775939, 1.429022688032128 89.88625682583078, -0.55401442758739 1.1695659290999174" stroke="#2b8a3e" stroke-width="2.5" fill="none" stroke-dasharray="12 8"></path></g><g transform="translate(215 35.5) rotate(0 100.5 62.25)"><path d="M1.0610541577308117 0.26193262401805517 C55.046012859341154 2.398367816230273, 110.18895767964656 0.36934253807609085, 200.60345413150915 -0.5358003215773045 M199.2442206311971 -1.2259114850312471 C201.01121767841744 41.55193493249827, 201.6405220278399 79.12605934990572, 201.4206468630582 125.54472668282688 M200.06705882192816 124.43294369427811 C161.4070625998842 124.90461828640589, 119.07067500962127 126.54109067457861, -0.8783093080593645 124.13800186641346 M-0.29294232837855816 123.88086683861911 C2.1413175544841216 86.21535022151656, 1.057187684546225 49.8043025222607, -1.8759593795984983 1.5647874008864164" stroke="#e67700" stroke-width="2.5" fill="none" stroke-dasharray="12 8"></path></g><g><g transform="translate(313.49444547330404 244.71199683323502) rotate(0 -2.084936219715189 -37.0947328030318)"><path d="M0.5096301298588515 0.35599841661751275 C-0.0066776483383742535 -11.852919919043776, -3.2039728771284066 -60.55553675219416, -3.9412305912387184 -73.03881154842674 M-0.681952781304717 -0.5027063599973918 C-1.2475235075381366 -13.033389350771905, -4.050577884925886 -62.39586814433336, -4.6795025692891885 -74.54546402268112" stroke="#e67700" stroke-width="2" fill="none"></path></g><g transform="translate(313.49444547330404 244.71199683323502) rotate(0 -2.084936219715189 -37.0947328030318)"><path d="M7.692428800081445 -46.288493160339044 C6.299285661007376 -52.531101218485716, 1.085464307387256 -57.65977442907019, -6.343215057776551 -75.61099579617381 M6.141243753758801 -47.54186420067583 C2.8251593850255032 -57.627206505693934, -3.1966507386991205 -67.52881329604286, -3.7066726825770546 -75.07400254126638" stroke="#e67700" stroke-width="2" fill="none"></path></g><g transform="translate(313.49444547330404 244.71199683323502) rotate(0 -2.084936219715189 -37.0947328030318)"><path d="M-12.798408188914301 -45.17242780551289 C-9.486433916113713 -51.75843907138561, -9.993141045199806 -57.14349259039931, -6.343215057776551 -75.61099579617381 M-14.349593235236945 -46.42579884584968 C-9.769120768415316 -56.94863806414532, -7.885810095096741 -67.28080957237442, -3.7066726825770546 -75.07400254126638" stroke="#e67700" stroke-width="2" fill="none"></path></g></g><g transform="translate(303.5 247.5) rotate(0 12 12)"><text x="0" y="20" font-family="Cascadia, Segoe UI Emoji" font-size="20px" fill="#e67700" text-anchor="start" style="white-space: pre;" direction="ltr">GC</text></g><g><g transform="translate(416.0304425297145 247) rotate(0 -0.6560750065056595 -20.229499696204428)"><path d="M0.3200415451079608 -0.07457609362900253 C0.12690712670754853 -6.659138693287965, -0.6747173632049831 -31.847099234536273, -0.7426354882704345 -38.51596626229582 M-0.9710753730498255 -1.1593324881233276 C-1.3466249066874738 -8.193922704402354, -1.707554131664512 -34.02074954444541, -1.6185541238287715 -40.38442329877985" stroke="#2b8a3e" stroke-width="2" fill="none"></path></g><g transform="translate(416.0304425297145 247) rotate(0 -0.6560750065056595 -20.229499696204428)"><path d="M4.985868717713945 -21.852392683564187 C3.4916354381992702 -26.897116443328798, -1.3141525444369488 -35.8479595378499, -0.008553145786088123 -39.60456088848174 M4.59154490861415 -21.362911218566804 C3.277573656436593 -26.874362486922923, 0.9434714744201397 -32.87663975100651, -1.0243416885890237 -41.15557256791123" stroke="#2b8a3e" stroke-width="2" fill="none"></path></g><g transform="translate(416.0304425297145 247) rotate(0 -0.6560750065056595 -20.229499696204428)"><path d="M-8.35625308547324 -21.812662464518883 C-5.385461025928787 -26.906266781127144, -5.725895428588637 -35.87040682185097, -0.008553145786088123 -39.60456088848174 M-8.750576894573033 -21.3231809995215 C-5.953488620058883 -26.810437579252497, -4.176551442748454 -32.82495671135822, -1.0243416885890237 -41.15557256791123" stroke="#2b8a3e" stroke-width="2" fill="none"></path></g></g><g transform="translate(394.75 249) rotate(0 23.5 12)"><text x="0" y="20" font-family="Cascadia, Segoe UI Emoji" font-size="20px" fill="#2b8a3e" text-anchor="start" style="white-space: pre;" direction="ltr">RAII</text></g><g transform="translate(32 64) rotate(0 60 13)"><text x="0" y="21" font-family="Cascadia, Segoe UI Emoji" font-size="20px" fill="#000000" text-anchor="start" style="white-space: pre;" direction="ltr">静态分配内存</text></g><g transform="translate(257.75 67.75) rotate(0 60 13)"><text x="0" y="21" font-family="Cascadia, Segoe UI Emoji" font-size="20px" fill="#000000" text-anchor="start" style="white-space: pre;" direction="ltr">动态分配内存</text></g><g transform="translate(483.5 71.5) rotate(0 60 13)"><text x="0" y="21" font-family="Cascadia, Segoe UI Emoji" font-size="20px" fill="#000000" text-anchor="start" style="white-space: pre;" direction="ltr">其他系统资源</text></g><g transform="translate(45.5 98.5) rotate(0 56.5 19.5)"><text x="0" y="15.5" font-family="Cascadia, Segoe UI Emoji" font-size="16px" fill="#000000" text-anchor="start" style="white-space: pre;" direction="ltr">stack,static</text><text x="0" y="35" font-family="Cascadia, Segoe UI Emoji" font-size="16px" fill="#000000" text-anchor="start" style="white-space: pre;" direction="ltr">     ..</text></g><g transform="translate(298.25 108.5) rotate(0 19 10)"><text x="0" y="16" font-family="Cascadia, Segoe UI Emoji" font-size="16px" fill="#000000" text-anchor="start" style="white-space: pre;" direction="ltr">heap</text></g><g transform="translate(494 102.5) rotate(0 70.5 19.5)"><text x="0" y="15.5" font-family="Cascadia, Segoe UI Emoji" font-size="16px" fill="#000000" text-anchor="start" style="white-space: pre;" direction="ltr">fd,socket,mutex</text><text x="0" y="35" font-family="Cascadia, Segoe UI Emoji" font-size="16px" fill="#000000" text-anchor="start" style="white-space: pre;" direction="ltr">      .. </text></g><g transform="translate(589.5 15.5) rotate(0 26 7.5)"><text x="0" y="12" font-family="Cascadia, Segoe UI Emoji" font-size="12.58823529411765px" fill="#000000" text-anchor="start" style="white-space: pre;" direction="ltr">@mapkts</text></g></svg>